# Aspose.3D Wavefront OBJ Exporter
# Copyright 2004-2024 Aspose Pty Ltd.
# File created: 01/23/2025 09:34:15

mtllib material.lib
g obj_39718242

#
# object obj_39718242
#

v -2.3466306 -6.3213162 36.05776
v -2.0322413 -6.3213162 37.21695
v -1.1733139 -6.3213162 38.07588
v 2.372148E-06 -6.3213162 38.390266
v 1.1733186 -6.3213167 38.07588
v 2.0322456 -6.3213167 37.21695
v 2.3466349 -6.3213167 36.05776
v -2.0322404 6.321306 37.21695
v -1.1733129 6.3213058 38.07588
v 3.4782058E-06 6.3213058 38.390266
v 1.1733196 6.3213058 38.07588
v 2.0322468 6.3213058 37.21695
v 2.3466358 6.3213058 36.05776
v -2.3466294 6.321306 36.05776
v -2.346631 -6.3213153 31.05252
v -2.3466296 6.321313 31.05252
v 2.3466358 6.3213124 31.052519
v 2.3466344 -6.321316 31.05252
v -2.542208 6.321306 36.05776
v -2.2106302 6.321306 37.319942
v -1.2763065 6.3213058 38.25427
v 3.5064684E-06 6.3213058 38.596252
v 1.2763132 6.3213058 38.254265
v 2.2106366 6.3213058 37.319942
v 2.5456042 6.3213058 36.05776
v 2.5456038 6.3213124 30.853552
v -2.5455978 6.321313 30.853548
v -2.2106302 6.793922 37.319942
v -1.2763064 6.7939215 38.25427
v 3.5421226E-06 6.7939215 38.596252
v 1.2763132 6.7939215 38.254265
v 2.2106369 6.7939215 37.319942
v 2.5456042 6.7939215 36.05776
v 2.5456038 6.7939215 30.853552
v -2.5455978 6.793922 30.853548
v -2.542208 6.793922 36.05776
v 0.85901827 0.8590179 -1.1056457E-07
v -0.8590181 0.859018 1.9143613E-08
v 0.8590181 -0.8590187 -1.9143577E-08
v -0.85901827 -0.8590185 1.10564606E-07
v 0.85902065 0.8590149 31.567837
v -0.8590157 0.85901505 31.567837
v 0.8590205 -0.8590217 31.567837
v -0.8590159 -0.85902154 31.567837
v 2.4025064 1.9775919 32.72085
v 2.402507 3.6391594 32.72085
v 2.4025073 3.855992 34.59925
v 2.707014 1.9775919 32.72085
v 2.7070146 3.8559914 32.937683
v 2.7070146 2.3210125 34.59925
v 2.707015 3.8559914 34.59925
v 2.7070146 1.9775918 34.255833
v 2.4025073 4.137448 32.611126
v 2.4025073 4.1374536 34.59925
v 2.4025064 1.9775919 32.39431
v 2.4025073 3.855992 32.937683
v 2.7070146 3.6391594 32.72085
v 2.402507 3.9206147 32.394295
v 0.20446298 7.658411 38.743248
v -0.20445606 7.5641356 38.648975
v 0.20446295 6.839723 38.648975
v -0.2044561 6.839723 38.648975
v 0.204463 7.658411 39.20137
v -0.20445602 7.658411 39.20137
v 0.20446296 7.5641356 38.648975
v -0.20445605 7.658411 38.743248
v 0.20446292 7.658411 38.495453
v -0.20445614 7.5641356 38.589725
v 0.2044629 6.839723 38.589725
v -0.20445615 6.839723 38.589725
v 0.20446289 7.658411 38.03733
v -0.20445617 7.658411 38.03733
v 0.20446292 7.5641356 38.589725
v -0.20445614 7.658411 38.495453
v 2.4515638 2.477346 33.1355
v 2.451564 3.477484 33.1355
v 2.4515648 2.4773455 42.017357
v 2.4515646 2.4773457 39.68969
v 2.4515648 3.3538156 42.017357
v 2.4515646 0.53743976 41.49132
v 2.451564 0.42576027 39.8307
v 0.2044629 6.2742715 38.648975
v -0.20445612 6.2742715 38.648975
v 0.20446287 6.2742715 38.188335
v -0.20445615 6.2742715 38.188335
v 0.20446295 6.839723 38.648975
v -0.2044561 6.839723 38.648975
v 0.20446284 6.839723 37.77183
v -0.20445618 6.839723 37.77183
v 2.4515646 2.3536777 39.760193
v 2.4515648 3.4774828 41.946854
v 2.4515646 0.42576084 41.390533
v 2.451564 0.5494282 39.760193
# 93 vertices

vn -0.9912451 9.279404E-08 0.13203508
vn -0.86526346 5.549845E-08 0.50131756
vn -0.86526334 5.2474448E-08 0.50131744
vn -0.9912451 8.381924E-08 0.13203508
vn -0.50000006 1.5882688E-09 0.86602545
vn -0.49999994 1.4020413E-09 0.86602545
vn 1.3196872E-07 -5.419205E-08 1
vn 1.3442403E-07 -5.339872E-08 1
vn 0.50000006 -9.525203E-08 0.8660254
vn 0.50000006 -9.745742E-08 0.8660254
vn 0.8652635 -1.11875146E-07 0.50131744
vn 0.8652635 -1.1203485E-07 0.50131744
vn 0.9912451 -1.0445946E-07 0.13203493
vn 0.9912451 -1.0753846E-07 0.13203493
vn 7.549793E-08 1 5.3212478E-08
vn 7.549793E-08 1 5.3212478E-08
vn 7.549793E-08 1 5.3212478E-08
vn 7.549793E-08 1 5.3212478E-08
vn 7.549793E-08 1 5.3212478E-08
vn 7.549793E-08 1 5.3212478E-08
vn 7.549793E-08 1 5.3212478E-08
vn 7.549793E-08 1 5.3212478E-08
vn 7.549793E-08 1 5.3212478E-08
vn 7.549793E-08 1 5.3212478E-08
vn 7.549793E-08 1 5.3212478E-08
vn 7.549793E-08 1 5.3212478E-08
vn 7.549793E-08 1 5.3212478E-08
vn 7.549793E-08 1 5.3212478E-08
vn 7.549793E-08 1 5.3212478E-08
vn -7.549793E-08 -1 -5.3212478E-08
vn -7.549793E-08 -1 -5.3212478E-08
vn -7.549793E-08 -1 -5.3212478E-08
vn -7.549793E-08 -1 -5.3212478E-08
vn -7.549793E-08 -1 -5.3212478E-08
vn -7.549793E-08 -1 -5.3212478E-08
vn -7.549793E-08 -1 -5.3212478E-08
vn -7.549793E-08 -1 -5.3212478E-08
vn -7.549793E-08 -1 -5.3212478E-08
vn -7.549793E-08 -1 -5.3212478E-08
vn -7.549793E-08 -1 -5.3212478E-08
vn -7.549793E-08 -1 -5.3212478E-08
vn -7.549793E-08 -1 -5.3212478E-08
vn -7.549793E-08 -1 -5.3212478E-08
vn -7.549793E-08 -1 -5.3212478E-08
vn -1 1.0249533E-07 5.829183E-08
vn -1 1.1444363E-07 7.549793E-08
vn 7.549794E-08 1 1.0715178E-07
vn 7.549794E-08 1 1.0715178E-07
vn 7.549794E-08 1 1.0715178E-07
vn 7.549793E-08 1 1.0715178E-07
vn 7.549793E-08 1 1.0715178E-07
vn 7.549793E-08 1 1.0715178E-07
vn 1 -1.0249533E-07 -6.466223E-08
vn 1 -1.1444363E-07 -4.745623E-08
vn -7.549794E-08 -1 -1.09295975E-07
vn -7.549794E-08 -1 -1.09295975E-07
vn -7.549794E-08 -1 -1.09295975E-07
vn -7.549793E-08 -1 -1.09295975E-07
vn -7.549793E-08 -1 -1.09295975E-07
vn -7.549793E-08 -1 -1.09295975E-07
vn 4.4125077E-08 5.321247E-08 -1
vn 4.4125077E-08 5.321247E-08 -1
vn 4.4125077E-08 5.321247E-08 -1
vn 4.4125077E-08 5.321247E-08 -1
vn 4.4125077E-08 5.321247E-08 -1
vn 4.4125077E-08 5.321247E-08 -1
vn -7.549793E-08 -1 -5.3212478E-08
vn -7.549793E-08 -1 -5.3212478E-08
vn -7.549793E-08 -1 -5.3212478E-08
vn -7.549793E-08 -1 -5.3212478E-08
vn -7.549793E-08 -1 -5.3212478E-08
vn -7.549793E-08 -1 -5.3212478E-08
vn -7.549793E-08 -1 -5.3212478E-08
vn -7.549793E-08 -1 -5.3212478E-08
vn -7.549793E-08 -1 -5.3212478E-08
vn -7.549793E-08 -1 -5.3212478E-08
vn -7.549793E-08 -1 -5.3212478E-08
vn -7.549793E-08 -1 -5.3212478E-08
vn -7.549793E-08 -1 -5.3212478E-08
vn -7.549793E-08 -1 -5.3212478E-08
vn -7.549793E-08 -1 -5.3212478E-08
vn -7.549793E-08 -1 -5.3212478E-08
vn -7.549793E-08 -1 -5.3212478E-08
vn -7.549793E-08 -1 -5.3212478E-08
vn -7.549793E-08 -1 -5.3212478E-08
vn -7.549793E-08 -1 -5.3212478E-08
vn -7.549793E-08 -1 -5.3212478E-08
vn -7.549793E-08 -1 -5.3212478E-08
vn -7.549793E-08 -1 -5.3212478E-08
vn -7.549793E-08 -1 -5.3212478E-08
vn -7.549793E-08 -1 -5.3212478E-08
vn -7.549793E-08 -1 -5.3212478E-08
vn -7.549793E-08 -1 -5.3212478E-08
vn -7.549793E-08 -1 -5.3212478E-08
vn -7.549793E-08 -1 -5.3212478E-08
vn -7.549793E-08 -1 -5.3212478E-08
vn -7.549793E-08 -1 -5.3212478E-08
vn -7.549793E-08 -1 -5.3212478E-08
vn -7.549793E-08 -1 -5.3212478E-08
vn -7.549793E-08 -1 -5.3212478E-08
vn -7.549793E-08 -1 -5.3212478E-08
vn -7.549793E-08 -1 -5.3212478E-08
vn -1.3158143E-07 -1 -1.09295975E-07
vn -1.3158143E-07 -1 -1.09295975E-07
vn -1.3158143E-07 -1 -1.09295975E-07
vn -7.549794E-08 -1 -1.0715178E-07
vn -7.549794E-08 -1 -1.0715178E-07
vn -7.549794E-08 -1 -1.0715178E-07
vn -7.549793E-08 -1 -5.3212478E-08
vn -7.549793E-08 -1 -5.3212478E-08
vn -7.549793E-08 -1 -5.3212478E-08
vn -7.549793E-08 -1 -5.3212478E-08
vn -7.549793E-08 -1 -5.3212478E-08
vn -7.549793E-08 -1 -5.3212478E-08
vn -7.549794E-08 -1 -1.09295975E-07
vn -7.549794E-08 -1 -1.09295975E-07
vn -7.549794E-08 -1 -1.09295975E-07
vn -2.1523434E-08 -1 -1.07186985E-07
vn -2.1523434E-08 -1 -1.07186985E-07
vn -2.1523434E-08 -1 -1.07186985E-07
vn -0.99171996 6.485401E-08 0.12841858
vn -0.8672485 3.898227E-08 0.49787557
vn -0.8672485 3.8496296E-08 0.49787566
vn -0.99171996 6.4381354E-08 0.12841848
vn -0.50000006 -8.336134E-09 0.86602545
vn -0.49999994 -8.334399E-09 0.86602545
vn 1.8352893E-07 -5.3214233E-08 1
vn 2.1299192E-07 -5.321075E-08 1
vn 0.50000006 -8.3832326E-08 0.8660254
vn 0.5000002 -8.383059E-08 0.8660254
vn 0.86662275 -9.239944E-08 0.49896392
vn 0.86662275 -9.197933E-08 0.49896392
vn 0.99160033 -8.490449E-08 0.12934032
vn 0.99160033 -8.449539E-08 0.12934032
vn 1 -7.549793E-08 -7.549793E-08
vn 1 -7.549793E-08 -7.549793E-08
vn 3.4775077E-08 5.3212474E-08 -1
vn 3.4775077E-08 5.3212474E-08 -1
vn 3.4775077E-08 5.3212474E-08 -1
vn 3.4775077E-08 5.3212474E-08 -1
vn 3.4775077E-08 5.3212474E-08 -1
vn 3.4775077E-08 5.3212474E-08 -1
vn -0.9999998 7.5462644E-08 0.0006513925
vn -0.9999998 7.5463255E-08 0.0006513925
vn -7.549792E-08 5.321248E-08 -1
vn -7.549792E-08 5.321248E-08 -1
vn -7.549792E-08 5.321248E-08 -1
vn -7.549792E-08 5.321248E-08 -1
vn 7.549793E-08 1 7.766638E-08
vn 7.549793E-08 1 7.766638E-08
vn 7.549793E-08 1 7.766638E-08
vn 7.549793E-08 1 7.766638E-08
vn -1 7.549793E-08 7.549793E-08
vn -1 7.549793E-08 7.549793E-08
vn -1 7.549793E-08 7.549793E-08
vn -1 7.549793E-08 7.549793E-08
vn -7.549793E-08 -1 -7.766638E-08
vn -7.549793E-08 -1 -7.766638E-08
vn -7.549793E-08 -1 -7.766638E-08
vn -7.549793E-08 -1 -7.766638E-08
vn 1 -7.549793E-08 -7.549793E-08
vn 1 -7.549793E-08 -7.549793E-08
vn 1 -7.549793E-08 -7.549793E-08
vn 1 -7.549793E-08 -7.549793E-08
vn 1 -3.0405593E-07 -2.0606494E-07
vn 1 -3.7183094E-07 9.3446054E-08
vn 1 -3.2565794E-07 -1.3459623E-07
vn 1 -3.102109E-07 -1.8152095E-07
vn 1 -3.9626894E-07 1.0737806E-07
vn 1 -3.1216592E-07 -1.5488224E-07
vn -8.148229E-07 2.9087053E-07 -1
vn -7.549792E-08 5.321248E-08 -1
vn -2.5802692E-07 1.118869E-07 -1
vn -9.973509E-07 3.4954556E-07 -1
vn 5.364249E-07 1 5.3212375E-08
vn 5.364249E-07 1 5.3212442E-08
vn 5.364249E-07 1 5.3212435E-08
vn 5.364249E-07 1 5.3212364E-08
vn 1 -7.549793E-08 -7.549793E-08
vn 1 -7.549793E-08 -7.549793E-08
vn 1 -7.549793E-08 -7.549793E-08
vn 1 -7.549793E-08 -7.549793E-08
vn 1 -7.549793E-08 -7.549793E-08
vn 1 -7.549793E-08 -7.549793E-08
vn 1 -6.6816295E-07 -7.549796E-08
vn 1 -6.6816295E-07 -7.549796E-08
vn 1 -6.6816295E-07 -7.549796E-08
vn 1 -5.823169E-07 -3.2453497E-07
vn 1 -5.823169E-07 -3.2453497E-07
vn 1 -5.823169E-07 -3.2453497E-07
vn 4.2861805E-07 0.8687338 -0.49527925
vn 4.2861805E-07 0.8687338 -0.49527925
vn 4.2861805E-07 0.8687338 -0.49527925
vn 2.819509E-08 0.868734 -0.49527887
vn 2.8195098E-08 0.8687341 -0.49527887
vn 2.819509E-08 0.868734 -0.49527887
vn 1 -7.549793E-08 -7.549793E-08
vn 1 -7.549793E-08 -7.549793E-08
vn 1 -7.549793E-08 -7.549793E-08
vn 1 -7.549793E-08 -7.549793E-08
vn 1 -7.549793E-08 -7.549793E-08
vn 1 -7.549793E-08 -7.549793E-08
vn 7.549792E-08 -5.321248E-08 1
vn 7.549792E-08 -5.321248E-08 1
vn 7.549792E-08 -5.321248E-08 1
vn 7.549792E-08 -5.321248E-08 1
vn -7.549793E-08 -1 -5.3212478E-08
vn -7.549793E-08 -1 -5.3212478E-08
vn -7.549793E-08 -1 -5.3212478E-08
vn -7.549793E-08 -1 -5.3212478E-08
vn -7.549793E-08 -1 -5.3212478E-08
vn -7.549793E-08 -1 -5.3212478E-08
vn -2.8195181E-08 -0.86873454 0.49527815
vn -2.8195181E-08 -0.86873454 0.49527815
vn -2.8195181E-08 -0.86873454 0.49527815
vn -2.8195181E-08 -0.86873454 0.49527815
vn -2.8195181E-08 -0.86873454 0.49527815
vn -2.8195181E-08 -0.86873454 0.49527815
vn -7.549792E-08 5.321248E-08 -1
vn -7.549792E-08 5.321248E-08 -1
vn -7.549792E-08 5.321248E-08 -1
vn -7.549792E-08 5.321248E-08 -1
vn -7.549793E-08 -1 -5.3212478E-08
vn -7.549793E-08 -1 -5.3212478E-08
vn -7.549793E-08 -1 -5.3212478E-08
vn -7.549793E-08 -1 -5.3212478E-08
vn -7.549793E-08 -1 -5.3212478E-08
vn -7.549793E-08 -1 -5.3212478E-08
vn -1.0298013E-07 -0.8687345 -0.49527824
vn -1.02980124E-07 -0.86873436 -0.49527824
vn -1.0298012E-07 -0.86873436 -0.49527815
vn -1.0298013E-07 -0.8687345 -0.49527824
vn -1.02980124E-07 -0.86873436 -0.49527824
vn -1.0298012E-07 -0.86873436 -0.49527815
vn 7.549792E-08 -5.321248E-08 1
vn 7.549792E-08 -5.321248E-08 1
vn 7.549792E-08 -5.321248E-08 1
vn 7.549792E-08 -5.321248E-08 1
vn -7.549793E-08 -1 -5.3212478E-08
vn -7.549793E-08 -1 -5.3212478E-08
vn -7.549793E-08 -1 -5.3212478E-08
vn -7.549793E-08 -1 -5.3212478E-08
vn -7.549793E-08 -1 -5.3212478E-08
vn -7.549793E-08 -1 -5.3212478E-08
vn 7.549793E-08 1 5.3212478E-08
vn 7.549793E-08 1 5.3212478E-08
vn 7.549793E-08 1 5.3212478E-08
vn 7.549793E-08 1 5.3212478E-08
vn 7.549793E-08 1 5.3212478E-08
vn 7.549793E-08 1 5.3212478E-08
vn 1 -4.3367893E-07 -1.05494244E-07
vn 1 -1.2132682E-07 -1.7771893E-07
vn 1 -2.4890892E-07 -1.15419134E-07
vn 1 -5.6083195E-07 -1.0780725E-07
vn 1 -5.678069E-07 -1.0735585E-07
vn 1 -2.0290092E-07 -1.6855243E-07
vn 1 -3.3948493E-07 -1.3317545E-07
vn 1 -2.710719E-07 -1.2436884E-07
vn 1 -4.3453792E-07 -1.09163544E-07
vn 1 4.7737082E-08 -2.492629E-07
vn 1 2.0937908E-07 -2.5545992E-07
# 261 vertex normals

vt 0.1889011 0.2758261 0
vt 0.2256371 0.2758261 0
vt 0.2256371 0.6486552 0
vt 0.188901 0.6486552 0
vt 0.2623734 0.2758261 0
vt 0.2623734 0.6486552 0
vt 0.2991094 0.2758261 0
vt 0.2991095 0.6486552 0
vt 0.3358451 0.275826 0
vt 0.3358452 0.6486552 0
vt 0.3725807 0.275826 0
vt 0.3725807 0.6486552 0
vt 0.9257745 0.70301 0
vt 0.8734617 0.7549164 0
vt 0.802001 0.7739153 0
vt 0.7305403 0.7549164 0
vt 0.6782273 0.7030097 0
vt 0.6594725 0.6335595 0
vt 0.4093161 0.2758261 0
vt 0.4093161 0.6486552 0
vt 0.03795872 0.6486552 0
vt 0.03795872 0.2758261 0
vt 0.5602581 0.2758261 0
vt 0.5602581 0.6486552 0
vt 0.9443399 0.6335346 0
vt 0.061661 0.8492339 0
vt 0.09246806 0.8492339 0
vt 0.09246806 0.8621775 0
vt 0.061661 0.8621775 0
vt 0.1245703 0.8492339 0
vt 0.4158128 0.7749463 0
vt 0.4288802 0.7265559 0
vt 0.4645816 0.6911321 0
vt 0.5133504 0.6781658 0
vt 0.5621194 0.6911321 0
vt 0.5978206 0.7265559 0
vt 0.6108883 0.7749462 0
vt 0.1245703 0.8621775 0
vt 0.1566722 0.8492339 0
vt 0.1566722 0.8621775 0
vt 0.1887741 0.8492339 0
vt 0.1887741 0.8621775 0
vt 0.2208759 0.8492339 0
vt 0.2208759 0.8621775 0
vt 0.2523189 0.8492339 0
vt 0.2523189 0.8621775 0
vt 0.3790478 0.8492339 0
vt 0.3790478 0.8621775 0
vt 0.2097653 0.9498755 0
vt 0.3783371 0.826761 0
vt 0.6594725 0.3437682 0
vt 0.06166129 0.8267609 0
vt 0.9445293 0.3437679 0
vt 0.3783363 0.702438 0
vt 0.6108882 0.9807906 0
vt 0.0836773 0.9498755 0
vt 0.0836773 0.9369324 0
vt 0.2097653 0.9369324 0
vt 0.061661 0.7024379 0
vt 0.4158128 0.9807907 0
vt 0.637657 0.6559129 0
vt 0.6597634 0.7377743 0
vt 0.6472197 0.7449604 0
vt 0.6234784 0.6557912 0
vt 0.7201594 0.7977016 0
vt 0.7129173 0.8101482 0
vt 0.802662 0.8196367 0
vt 0.802662 0.8340079 0
vt 0.8851648 0.7977016 0
vt 0.8924065 0.8101479 0
vt 0.2192692 0.9691411 0
vt 0.0836773 0.9691411 0
vt 0.9455608 0.7377743 0
vt 0.9581041 0.7449604 0
vt 0.9676672 0.6559129 0
vt 0.9816576 0.6577407 0
vt 0.9676669 0.3076856 0
vt 0.9816576 0.2938034 0
vt 0.637657 0.3076856 0
vt 0.0836773 0.9573665 0
vt 0.2192692 0.9573665 0
vt 0.6236663 0.2938034 0
vt 0.637657 0.6559129 0
vt 0.973251 0.1941192 0
vt 0.945253 0.1941192 0
vt 0.945253 0.1408443 0
vt 0.973251 0.1408443 0
vt 0.04288544 0.1408443 0
vt 0.04288544 0.194119 0
vt 0.945253 0.03266054 0
vt 0.945253 0.08657608 0
vt 0.04288544 0.08657608 0
vt 0.04288544 0.03266054 0
vt 0.945253 0.2533531 0
vt 0.04288544 0.253353 0
vt 0.8747699 0.9740806 0
vt 0.8747699 0.9228441 0
vt 0.886499 0.9161604 0
vt 0.9763682 0.91616 0
vt 0.8582996 0.9740796 0
vt 0.8582998 0.9228438 0
vt 0.878347 0.9018502 0
vt 0.6516011 0.9556062 0
vt 0.7323457 0.9556062 0
vt 0.748215 0.9695692 0
vt 0.8864987 0.8996912 0
vt 0.9763682 0.8996903 0
vt 0.9763678 0.9634923 0
vt 0.6516011 0.9695697 0
vt 0.7428828 0.9448491 0
vt 0.7428828 0.8624189 0
vt 0.7587513 0.8624189 0
vt 0.9577932 0.9740818 0
vt 0.7587519 0.9588121 0
vt 0.6609319 0.8997087 0
vt 0.6875241 0.8997087 0
vt 0.6875241 0.8657955 0
vt 0.6875241 0.8926538 0
vt 0.6875241 0.9294978 0
vt 0.6609319 0.9294978 0
vt 0.6609319 0.8926538 0
vt 0.701803 0.8955842 0
vt 0.7283945 0.9294978 0
vt 0.701803 0.9294978 0
vt 0.701803 0.90264 0
vt 0.701803 0.8657949 0
vt 0.7283945 0.8657949 0
vt 0.7283945 0.90264 0
vt 0.7283945 0.8955842 0
vt 0.304611 0.9144163 0
vt 0.2467109 0.9144163 0
vt 0.304611 0.8910367 0
vt 0.0836773 0.9144163 0
vt 0.0836773 0.8877379 0
vt 0.291526 0.9661621 0
vt 0.2502185 0.9691411 0
vt 0.6609319 0.8657955 0
vt 0.8666169 0.9085327 0
vt 0.9434043 0.8599022 0
vt 0.9434043 0.8377851 0
vt 0.9683194 0.8377851 0
vt 0.9683194 0.8599022 0
vt 0.9259688 0.8377851 0
vt 0.9259688 0.8599022 0
vt 0.878527 0.8599022 0
vt 0.878527 0.8377851 0
vt 0.2484647 0.9177151 0
vt 0.3028572 0.8877379 0
vt 0.289019 0.9691411 0
vt 0.2484647 0.9658423 0
# 150 texture coords

usemtl _1_-_Default
s 1
f 1/1/1 2/2/2 8/3/3
f 8/3/3 14/4/4 1/1/1
f 2/2/2 3/5/5 9/6/6
f 9/6/6 8/3/3 2/2/2
f 3/5/5 4/7/7 10/8/8
f 10/8/8 9/6/6 3/5/5
f 4/7/7 5/9/9 11/10/10
f 11/10/10 10/8/8 4/7/7
f 5/9/9 6/11/11 12/12/12
f 12/12/12 11/10/10 5/9/9
f 6/11/11 7/19/13 13/20/14
f 13/20/14 12/12/12 6/11/11
f 28/13/15 29/14/16 30/15/17
f 30/15/18 31/16/19 32/17/20
f 28/13/21 30/15/22 32/17/23
f 28/13/24 32/17/25 33/18/26
f 28/13/27 33/18/28 36/25/29
f 6/32/30 5/33/31 4/34/32
f 4/34/33 3/35/34 2/36/35
f 4/34/36 2/36/37 1/37/38
f 6/32/39 4/34/40 1/37/41
f 7/31/42 6/32/43 1/37/44
f 1/1/1 14/4/4 16/21/45
f 16/21/45 15/22/46 1/1/1
f 36/25/47 33/18/48 34/51/49
f 34/51/50 35/53/51 36/25/52
f 13/20/14 7/19/13 18/23/53
f 18/23/53 17/24/54 13/20/14
f 7/31/55 1/37/56 15/55/57
f 15/55/58 18/60/59 7/31/60
f 15/50/61 16/52/62 18/54/63
f 16/52/64 17/59/65 18/54/66
f 14/61/67 8/62/68 20/63/69
f 20/63/70 19/64/71 14/61/72
f 8/62/73 9/65/74 21/66/75
f 21/66/76 20/63/77 8/62/78
f 9/65/79 10/67/80 22/68/81
f 22/68/82 21/66/83 9/65/84
f 10/67/85 11/69/86 23/70/87
f 23/70/88 22/68/89 10/67/90
f 11/69/91 12/73/92 24/74/93
f 24/74/94 23/70/95 11/69/96
f 12/73/97 13/75/98 25/76/99
f 25/76/100 24/74/101 12/73/102
f 13/75/103 17/77/104 26/78/105
f 26/78/106 25/76/107 13/75/108
f 17/77/109 16/79/110 27/82/111
f 27/82/112 26/78/113 17/77/114
f 16/79/115 14/83/116 19/64/117
f 19/64/118 27/82/119 16/79/120
f 19/26/121 20/27/122 28/28/123
f 28/28/123 36/29/124 19/26/121
f 20/27/122 21/30/125 29/38/126
f 29/38/126 28/28/123 20/27/122
f 21/30/125 22/39/127 30/40/128
f 30/40/128 29/38/126 21/30/125
f 22/39/127 23/41/129 31/42/130
f 31/42/130 30/40/128 22/39/127
f 23/41/129 24/43/131 32/44/132
f 32/44/132 31/42/130 23/41/129
f 24/43/131 25/45/133 33/46/134
f 33/46/134 32/44/132 24/43/131
f 25/45/133 26/47/135 34/48/136
f 34/48/136 33/46/134 25/45/133
f 26/71/137 27/72/138 35/80/139
f 35/80/140 34/81/141 26/71/142
f 27/49/143 19/56/121 36/57/124
f 36/57/124 35/58/144 27/49/143
f 37/84/145 39/85/146 40/86/147
f 40/86/147 38/87/148 37/84/145
f 37/90/149 38/91/150 42/92/151
f 42/92/151 41/93/152 37/90/149
f 38/91/153 40/86/154 44/88/155
f 44/88/155 42/92/156 38/91/153
f 40/86/157 39/85/158 43/89/159
f 43/89/159 44/88/160 40/86/157
f 39/85/161 37/94/162 41/95/163
f 41/95/163 43/89/164 39/85/161
f 48/96/165 57/97/166 49/98/167
f 48/96/165 49/98/167 51/99/168
f 51/99/168 50/108/169 52/113/170
f 48/96/165 51/99/168 52/113/170
f 45/100/171 46/101/172 57/97/173
f 57/97/173 48/96/174 45/100/171
f 56/106/175 47/107/176 51/99/177
f 51/99/177 49/98/178 56/106/175
f 47/103/179 56/104/180 53/105/181
f 53/105/182 54/109/183 47/103/184
f 46/110/185 45/111/186 55/112/187
f 55/112/188 58/114/189 46/110/190
f 46/138/191 56/102/192 49/98/193
f 49/98/194 57/97/195 46/138/196
f 56/104/197 46/110/198 58/114/199
f 58/114/200 53/105/201 56/104/202
f 65/118/203 60/121/204 62/137/205
f 62/137/205 61/117/206 65/118/203
f 66/115/207 59/116/208 63/119/209
f 63/119/210 64/120/211 66/115/212
f 65/118/213 59/116/214 66/115/215
f 66/115/216 60/121/217 65/118/218
f 73/128/219 69/123/220 70/124/221
f 70/124/221 68/125/222 73/128/219
f 74/122/223 72/126/224 71/127/225
f 71/127/226 67/129/227 74/122/228
f 73/128/229 68/125/230 74/122/231
f 74/122/232 67/129/233 73/128/234
f 86/144/235 87/143/236 83/140/237
f 83/140/237 82/139/238 86/144/235
f 82/139/239 83/140/240 85/141/241
f 85/141/242 84/142/243 82/139/244
f 87/143/245 86/144/246 88/145/247
f 88/145/248 89/146/249 87/143/250
f 77/130/251 81/136/252 93/150/253
f 75/133/254 76/134/255 91/148/256
f 91/148/256 78/131/257 75/133/254
f 90/147/258 78/131/257 91/148/256
f 91/148/256 79/132/259 90/147/258
f 90/147/258 79/132/259 77/130/251
f 77/130/251 93/150/253 90/147/258
f 80/135/260 92/149/261 81/136/252
f 81/136/252 77/130/251 80/135/260
#121 polygons

